<?xml version="1.0" encoding="utf-8"?>
<!-- Generator: Adobe Illustrator 23.0.3, SVG Export Plug-In . SVG Version: 6.00 Build 0)  -->
<svg version="1.1" id="Camada_1" xmlns="http://www.w3.org/2000/svg" xmlns:xlink="http://www.w3.org/1999/xlink" x="0px" y="0px"
	 viewBox="0 0 204.26 213.73" style="enable-background:new 0 0 204.26 213.73;" xml:space="preserve">
<style type="text/css">
	.st0{fill:#592C22;}
	.st1{fill:#FBBA00;}
	.st2{fill:#FFFFFF;}
</style>
<g>
	<g>
		<path class="st0" d="M-395.25-638.54h9.13v35.04h-9.13V-638.54z"/>
		<path class="st0" d="M-363.29-639.18c7.01,0,12.85,3.45,16.03,9.4l-6.95,4.73c-2.28-3.82-5.31-5.73-9.13-5.73
			c-5.57,0-9.56,3.93-9.56,9.82c0,2.92,0.9,5.26,2.65,7.06c1.8,1.75,4.09,2.65,6.9,2.65c3.82,0,6.85-1.91,9.13-5.73l6.95,4.72
			c-3.19,5.95-9.03,9.4-16.09,9.4c-10.3,0.16-19.11-8.02-18.9-18.16C-382.4-631.06-373.69-639.39-363.29-639.18z"/>
		<path class="st0" d="M-343.38-638.54h9.13v12.79h12.79v-12.79h9.13v35.04h-9.13v-14.02h-12.79v14.02h-9.13V-638.54z"/>
		<path class="st0" d="M-275.59-638.54v35.68h-2.92l-19-18.42v17.78h-9.13v-35.68h2.92l19.01,18.16v-17.52H-275.59z"/>
		<path class="st0" d="M-252.87-639.18c10.19-0.21,19.16,8.12,18.95,18.16c0.21,10.14-8.76,18.32-18.95,18.16
			c-10.25,0.16-19.06-8.02-18.85-18.16C-271.93-631.06-263.12-639.39-252.87-639.18z M-252.82-630.79c-5.63,0-9.56,3.98-9.56,9.77
			c0,2.92,0.9,5.31,2.65,7.11c1.75,1.75,4.09,2.65,6.9,2.65c5.41,0,9.56-3.93,9.56-9.77C-243.26-626.81-247.4-630.79-252.82-630.79z
			"/>
	</g>
	<path class="st1" d="M-247.36-814.93h-76.61c-7.83,0-19.44,3.75-25.8,8.33l-34.36,24.77c-6.35,4.58-11.55,14.74-11.55,22.57v92.65
		c0,7.83,6.41,14.24,14.24,14.24h134.08c7.83,0,14.24-6.41,14.24-14.24v-134.08C-233.12-808.52-239.53-814.93-247.36-814.93z
		 M-255.64-778.99c-1.55,4.63-4.43,10.74-9.57,15.19l-6.86-7.95C-266.96-776.16-260.46-778.12-255.64-778.99z M-337.27-796.42
		c1.55,3.75,3.08,8.9,3,14.4c-0.07-0.01-0.14-0.02-0.21-0.02l-9.92-0.73C-343.02-788.33-339.94-793.1-337.27-796.42z
		 M-271.54-746.13l-39.58,27.22c-4.07,2.8-2.34,9.2,2.59,9.56l28.82,2.11c2.66,0.19,4.66,2.51,4.46,5.17l-0.79,10.85
		c-0.17,2.38-2.1,4.3-4.48,4.47l-38.16,2.63c-4.34,0.3-8.51,1.44-12.39,3.41l-14.77,7.45c-9.06,4.57-20.32,2.46-26.79-5.02
		c-6.62-7.66-6.95-19.28-0.78-27.63l9.07-12.29c2.8-3.79,4.77-8.23,5.7-12.84l7.58-37.43c0.48-2.38,2.67-4.03,5.09-3.86l10.71,0.78
		c2.66,0.19,4.66,2.51,4.46,5.17l-2.11,28.82c-0.36,4.93,5.71,7.58,9.08,3.96l32.7-35.2c2.13-2.3,5.77-2.24,7.82,0.14l12.77,14.79
		C-268.49-751.53-268.94-747.92-271.54-746.13z M-265.5-691.39l0.73-9.92c0.01-0.07,0.01-0.14,0.01-0.21
		c5.42,0.72,10.29,2.99,13.79,5.07C-254.64-694.3-259.79-691.96-265.5-691.39z"/>
</g>
<g>
	<g>
		<path class="st2" d="M-366.42,227.78h9.28v35.62h-9.28V227.78z"/>
		<path class="st2" d="M-333.93,227.13c7.12,0,13.06,3.51,16.3,9.55l-7.07,4.8c-2.32-3.89-5.4-5.83-9.28-5.83
			c-5.67,0-9.71,3.99-9.71,9.99c0,2.97,0.92,5.34,2.7,7.18c1.83,1.78,4.16,2.7,7.02,2.7c3.89,0,6.96-1.94,9.28-5.83l7.07,4.8
			c-3.24,6.04-9.18,9.55-16.35,9.55c-10.47,0.16-19.43-8.15-19.21-18.46C-353.36,235.39-344.51,226.91-333.93,227.13z"/>
		<path class="st2" d="M-313.69,227.78h9.28v13.01h13.01v-13.01h9.28v35.62h-9.28v-14.25h-13.01v14.25h-9.28V227.78z"/>
		<path class="st2" d="M-244.77,227.78v36.27h-2.97l-19.32-18.73v18.08h-9.28v-36.27h2.97l19.32,18.46v-17.81H-244.77z"/>
		<path class="st2" d="M-221.68,227.13c10.36-0.22,19.48,8.26,19.27,18.46c0.22,10.31-8.9,18.62-19.27,18.46
			c-10.42,0.16-19.38-8.15-19.16-18.46C-241.05,235.39-232.09,226.91-221.68,227.13z M-221.62,235.66c-5.72,0-9.71,4.05-9.71,9.93
			c0,2.97,0.92,5.4,2.7,7.23c1.78,1.78,4.16,2.7,7.02,2.7c5.5,0,9.71-3.99,9.71-9.93C-211.91,239.71-216.12,235.66-221.62,235.66z"
			/>
	</g>
	<path class="st1" d="M-216.07,48.46h-77.88c-7.96,0-19.77,3.81-26.23,8.47l-34.93,25.18c-6.46,4.66-11.75,14.98-11.75,22.95v94.19
		c0,7.96,6.52,14.48,14.48,14.48h136.3c7.96,0,14.48-6.52,14.48-14.48V62.94C-201.59,54.98-208.11,48.46-216.07,48.46z M-224.49,85
		c-1.58,4.7-4.5,10.92-9.73,15.44l-6.98-8.08C-236,87.87-229.39,85.88-224.49,85z M-307.48,67.28c1.58,3.82,3.14,9.04,3.05,14.64
		c-0.07-0.01-0.14-0.02-0.22-0.02l-10.08-0.74C-313.32,75.49-310.19,70.65-307.48,67.28z M-240.65,118.4l-40.23,27.67
		c-4.14,2.85-2.38,9.35,2.63,9.72l29.3,2.14c2.7,0.2,4.74,2.56,4.54,5.25l-0.81,11.03c-0.18,2.42-2.14,4.37-4.56,4.54l-38.8,2.68
		c-4.41,0.3-8.65,1.47-12.6,3.46l-15.01,7.58c-9.21,4.65-20.66,2.5-27.23-5.11c-6.73-7.79-7.06-19.6-0.79-28.09l9.22-12.49
		c2.84-3.85,4.85-8.36,5.8-13.05l7.71-38.05c0.49-2.42,2.71-4.1,5.17-3.92l10.89,0.8c2.71,0.2,4.74,2.55,4.54,5.25l-2.14,29.3
		c-0.37,5.01,5.81,7.71,9.23,4.02l33.24-35.78c2.16-2.33,5.87-2.27,7.95,0.14l12.98,15.03
		C-237.55,112.91-238.02,116.59-240.65,118.4z M-234.51,174.05l0.74-10.08c0.01-0.07,0.01-0.14,0.01-0.21
		c5.51,0.73,10.46,3.03,14.02,5.15C-223.47,171.09-228.71,173.47-234.51,174.05z"/>
</g>
<path class="st1" d="M172.01,23.3H94.13c-7.96,0-19.77,3.81-26.23,8.47L32.97,56.95C26.51,61.6,21.23,71.93,21.23,79.9v94.19
	c0,7.96,6.52,14.48,14.48,14.48h136.3c7.96,0,14.48-6.52,14.48-14.48V37.78C186.49,29.82,179.98,23.3,172.01,23.3z M163.59,59.84
	c-1.58,4.7-4.5,10.92-9.73,15.44l-6.98-8.08C152.08,62.71,158.69,60.72,163.59,59.84z M80.6,42.12c1.58,3.82,3.14,9.04,3.05,14.64
	c-0.07-0.01-0.14-0.02-0.22-0.02L73.35,56C74.77,50.33,77.89,45.49,80.6,42.12z M147.43,93.24l-40.23,27.67
	c-4.14,2.85-2.38,9.35,2.63,9.72l29.3,2.14c2.7,0.2,4.74,2.56,4.54,5.25l-0.81,11.03c-0.18,2.42-2.14,4.37-4.56,4.54l-38.8,2.68
	c-4.41,0.3-8.65,1.47-12.6,3.46l-15.01,7.58c-9.21,4.65-20.66,2.5-27.23-5.11c-6.73-7.79-7.06-19.6-0.79-28.09l9.22-12.49
	c2.84-3.85,4.85-8.36,5.8-13.05l7.71-38.05c0.49-2.42,2.71-4.1,5.17-3.92l10.89,0.8c2.71,0.2,4.74,2.55,4.54,5.25l-2.14,29.3
	c-0.37,5.01,5.81,7.71,9.23,4.02l33.24-35.78c2.16-2.33,5.87-2.27,7.95,0.14l12.98,15.03C150.53,87.75,150.07,91.42,147.43,93.24z
	 M153.57,148.89l0.74-10.08c0.01-0.07,0.01-0.14,0.01-0.21c5.51,0.73,10.46,3.03,14.02,5.15
	C164.61,145.93,159.37,148.31,153.57,148.89z"/>
<g>
	<g>
		<path class="st0" d="M524.42-675.2h16.95v65.04h-16.95V-675.2z"/>
		<path class="st0" d="M583.74-676.38c13.01,0,23.85,6.4,29.76,17.44l-12.91,8.77c-4.24-7.1-9.85-10.64-16.95-10.64
			c-10.35,0-17.74,7.29-17.74,18.23c0,5.42,1.67,9.76,4.93,13.11c3.35,3.25,7.59,4.93,12.81,4.93c7.1,0,12.71-3.55,16.95-10.64
			l12.91,8.77c-5.91,11.04-16.75,17.44-29.86,17.44c-19.12,0.3-35.48-14.88-35.08-33.7C548.27-661.31,564.43-676.78,583.74-676.38z"
			/>
		<path class="st0" d="M620.69-675.2h16.95v23.75h23.75v-23.75h16.95v65.04h-16.95v-26.02h-23.75v26.02h-16.95V-675.2z"/>
		<path class="st0" d="M746.53-675.2v66.22h-5.42l-35.28-34.2v33.01h-16.95v-66.22h5.42l35.28,33.7v-32.52H746.53z"/>
		<path class="st0" d="M788.71-676.38c18.92-0.39,35.57,15.08,35.18,33.7c0.39,18.82-16.26,34-35.18,33.7
			c-19.02,0.3-35.38-14.88-34.98-33.7C753.33-661.31,769.68-676.78,788.71-676.38z M788.8-660.82c-10.45,0-17.74,7.39-17.74,18.13
			c0,5.42,1.67,9.86,4.93,13.21c3.25,3.25,7.59,4.93,12.81,4.93c10.05,0,17.74-7.29,17.74-18.13
			C806.54-653.42,798.85-660.82,788.8-660.82z"/>
	</g>
	<path class="st1" d="M476.89-676.39h-31.77c-3.25,0-8.06,1.55-10.7,3.45l-14.25,10.27c-2.64,1.9-4.79,6.11-4.79,9.36v38.42
		c0,3.25,2.66,5.91,5.91,5.91h55.6c3.25,0,5.91-2.66,5.91-5.91v-55.6C482.8-673.73,480.14-676.39,476.89-676.39z M473.46-661.49
		c-0.64,1.92-1.84,4.46-3.97,6.3l-2.85-3.29C468.76-660.31,471.46-661.13,473.46-661.49z M439.6-668.72
		c0.64,1.56,1.28,3.69,1.24,5.97c-0.03,0-0.06-0.01-0.09-0.01l-4.11-0.3C437.22-665.36,438.5-667.34,439.6-668.72z M466.86-647.86
		l-16.41,11.29c-1.69,1.16-0.97,3.81,1.07,3.96l11.95,0.87c1.1,0.08,1.93,1.04,1.85,2.14l-0.33,4.5c-0.07,0.99-0.87,1.78-1.86,1.85
		l-15.83,1.09c-1.8,0.12-3.53,0.6-5.14,1.41l-6.12,3.09c-3.76,1.9-8.43,1.02-11.11-2.08c-2.74-3.18-2.88-8-0.32-11.46l3.76-5.1
		c1.16-1.57,1.98-3.41,2.36-5.33l3.14-15.52c0.2-0.99,1.11-1.67,2.11-1.6l4.44,0.32c1.1,0.08,1.93,1.04,1.85,2.14l-0.87,11.95
		c-0.15,2.04,2.37,3.14,3.77,1.64l13.56-14.6c0.88-0.95,2.39-0.93,3.24,0.06l5.3,6.13C468.13-650.1,467.94-648.6,466.86-647.86z
		 M469.37-625.16l0.3-4.11c0-0.03,0-0.06,0-0.09c2.25,0.3,4.27,1.24,5.72,2.1C473.87-626.37,471.73-625.4,469.37-625.16z"/>
</g>
</svg>
