<?xml version="1.0" encoding="utf-8"?>
<!-- Generator: Adobe Illustrator 23.0.3, SVG Export Plug-In . SVG Version: 6.00 Build 0)  -->
<svg version="1.1" id="Camada_1" xmlns="http://www.w3.org/2000/svg" xmlns:xlink="http://www.w3.org/1999/xlink" x="0px" y="0px"
	 viewBox="0 0 480 117.45" style="enable-background:new 0 0 480 117.45;" xml:space="preserve">
<style type="text/css">
	.st0{fill:#FFFFFF;}
	.st1{fill:#FFFFFF;}
	.st2{fill:#FFFFFF;}
</style>
<g>
	<g>
		<path class="st0" d="M146.55,28.46h16.95V93.5h-16.95V28.46z"/>
		<path class="st0" d="M205.87,27.28c13.01,0,23.85,6.4,29.76,17.44l-12.91,8.77c-4.24-7.1-9.85-10.64-16.95-10.64
			c-10.35,0-17.74,7.29-17.74,18.23c0,5.42,1.67,9.76,4.93,13.11c3.35,3.25,7.59,4.93,12.81,4.93c7.1,0,12.71-3.55,16.95-10.64
			l12.91,8.77c-5.91,11.04-16.75,17.44-29.86,17.44c-19.12,0.3-35.48-14.88-35.08-33.7C170.39,42.35,186.55,26.88,205.87,27.28z"/>
		<path class="st0" d="M242.82,28.46h16.95v23.75h23.75V28.46h16.95V93.5h-16.95V67.48h-23.75V93.5h-16.95V28.46z"/>
		<path class="st0" d="M368.66,28.46v66.22h-5.42l-35.28-34.2V93.5h-16.95V27.28h5.42l35.28,33.7V28.46H368.66z"/>
		<path class="st0" d="M410.83,27.28c18.92-0.39,35.57,15.08,35.18,33.7c0.39,18.82-16.26,34-35.18,33.7
			c-19.02,0.3-35.38-14.88-34.98-33.7C375.46,42.35,391.81,26.88,410.83,27.28z M410.93,42.84c-10.45,0-17.74,7.39-17.74,18.13
			c0,5.42,1.67,9.86,4.93,13.21c3.25,3.25,7.59,4.93,12.81,4.93c10.05,0,17.74-7.29,17.74-18.13
			C428.67,50.24,420.98,42.84,410.93,42.84z"/>
	</g>
	<path class="st1" d="M99.02,27.27H67.25c-3.25,0-8.06,1.55-10.7,3.45L42.3,40.99c-2.64,1.9-4.79,6.11-4.79,9.36v38.42
		c0,3.25,2.66,5.91,5.91,5.91h55.6c3.25,0,5.91-2.66,5.91-5.91v-55.6C104.92,29.93,102.27,27.27,99.02,27.27z M95.58,42.17
		c-0.64,1.92-1.84,4.46-3.97,6.3l-2.85-3.29C90.89,43.34,93.58,42.53,95.58,42.17z M61.73,34.94c0.64,1.56,1.28,3.69,1.24,5.97
		c-0.03,0-0.06-0.01-0.09-0.01l-4.11-0.3C59.35,38.3,60.62,36.32,61.73,34.94z M88.99,55.8L72.58,67.09
		c-1.69,1.16-0.97,3.81,1.07,3.96l11.95,0.87c1.1,0.08,1.93,1.04,1.85,2.14l-0.33,4.5c-0.07,0.99-0.87,1.78-1.86,1.85l-15.83,1.09
		c-1.8,0.12-3.53,0.6-5.14,1.41l-6.12,3.09c-3.76,1.9-8.43,1.02-11.11-2.08c-2.74-3.18-2.88-8-0.32-11.46l3.76-5.1
		c1.16-1.57,1.98-3.41,2.36-5.33l3.14-15.52c0.2-0.99,1.11-1.67,2.11-1.6l4.44,0.32c1.1,0.08,1.93,1.04,1.85,2.14l-0.87,11.95
		c-0.15,2.04,2.37,3.14,3.77,1.64l13.56-14.6c0.88-0.95,2.39-0.93,3.24,0.06l5.3,6.13C90.25,53.56,90.07,55.06,88.99,55.8z
		 M91.5,78.5l0.3-4.11c0-0.03,0-0.06,0-0.09c2.25,0.3,4.27,1.24,5.72,2.1C96,77.29,93.86,78.26,91.5,78.5z"/>
</g>
</svg>
