<?xml version="1.0" encoding="UTF-8" standalone="no"?>
<!DOCTYPE svg PUBLIC "-//W3C//DTD SVG 1.1//EN" "http://www.w3.org/Graphics/SVG/1.1/DTD/svg11.dtd">
<svg version="1.1" xmlns="http://www.w3.org/2000/svg" xmlns:xlink="http://www.w3.org/1999/xlink" preserveAspectRatio="xMidYMid meet" viewBox="-1 -1 548.6756224578309 93.89916173046191" width="544.68" height="89.9"><defs><path d="M167.99 1.59L167.99 88.31L145.39 88.31L145.39 1.59L167.99 1.59Z" id="c19dcSpL7D"></path><path d="M264.16 23.27C262.44 24.44 248.67 33.79 246.95 34.96C241.29 25.49 233.81 20.77 224.35 20.77C210.55 20.77 200.69 30.49 200.69 45.08C200.69 52.31 202.92 58.09 207.27 62.56C211.73 66.89 217.39 69.13 224.35 69.13C233.81 69.13 241.29 64.4 246.95 54.95C248.67 56.12 262.44 65.47 264.16 66.64C256.28 81.36 241.83 89.89 224.35 89.89C198.85 90.29 177.04 70.05 177.57 44.96C177.17 20.11 198.72 -0.52 224.48 0.01C241.83 0.01 256.28 8.55 264.16 23.27Z" id="c6ebGmxqW"></path><path d="M296.35 1.59L296.35 33.25L328.01 33.25L328.01 1.59L350.61 1.59L350.61 88.31L328.01 88.31L328.01 53.61L296.35 53.61L296.35 88.31L273.75 88.31L273.75 1.59L296.35 1.59Z" id="f1L0Fv5yf1"></path><path d="M441.53 89.88L434.31 89.88L387.27 44.28L387.27 88.31L364.67 88.31L364.67 0.01L371.89 0.01L418.93 44.95L418.93 1.59L441.53 1.59L441.53 89.88Z" id="b8C1lEE7y"></path><path d="M544.67 44.95C545.19 70.04 522.99 90.28 497.76 89.88C472.4 90.28 450.59 70.04 451.12 44.95C450.6 20.11 472.4 -0.52 497.76 0.01C522.99 -0.51 545.19 20.12 544.67 44.95ZM474.24 44.93C474.24 52.16 476.47 58.08 480.81 62.55C485.15 66.88 490.93 69.12 497.89 69.12C511.29 69.12 521.55 59.4 521.55 44.95C521.55 30.63 511.29 20.76 497.89 20.76C483.96 20.76 474.24 30.61 474.24 44.93Z" id="b11DAA8Qa3"></path><path d="M39.65 0C35.32 0 28.91 2.07 25.39 4.6C23.49 5.97 8.29 16.92 6.39 18.29C2.87 20.83 0 26.44 0 30.77C0 35.9 0 76.88 0 82C0 86.33 3.55 89.88 7.88 89.88C15.29 89.88 74.6 89.88 82.01 89.88C86.35 89.88 89.89 86.33 89.89 82C89.89 74.59 89.89 15.28 89.89 7.87C89.88 3.55 86.35 0 82.01 0C73.54 0 43.89 0 39.65 0ZM72.13 28.27C71.75 27.83 68.71 24.32 68.33 23.88C71.17 21.43 74.76 20.35 77.43 19.87C76.57 22.43 74.97 25.81 72.13 28.27ZM33.95 18.19C33.91 18.19 33.87 18.17 33.83 18.17C33.28 18.13 28.89 17.81 28.35 17.77C29.12 14.71 30.81 12.07 32.29 10.23C33.15 12.31 34 15.15 33.95 18.19ZM46.76 53.09C44.51 54.64 45.47 58.17 48.19 58.37C49.78 58.49 62.53 59.42 64.12 59.53C65.59 59.64 66.69 60.92 66.59 62.39C66.54 62.99 66.19 67.79 66.15 68.39C66.05 69.71 64.99 70.76 63.67 70.85C61.56 71 44.67 72.16 42.56 72.31C40.16 72.47 37.85 73.11 35.71 74.19C34.89 74.6 28.36 77.89 27.55 78.31C22.53 80.84 16.31 79.67 12.73 75.53C9.08 71.29 8.89 64.87 12.31 60.25C12.81 59.57 16.82 54.13 17.32 53.45C18.87 51.36 19.96 48.91 20.47 46.35C20.89 44.28 24.23 27.72 24.65 25.65C24.92 24.33 26.13 23.43 27.47 23.52C28.06 23.56 32.79 23.9 33.39 23.95C34.85 24.05 35.96 25.33 35.85 26.8C35.74 28.39 34.81 41.14 34.69 42.73C34.49 45.45 37.85 46.92 39.72 44.92C41.53 42.97 55.99 27.4 57.8 25.45C58.97 24.19 60.99 24.21 62.12 25.53C62.83 26.35 68.48 32.89 69.19 33.71C70.32 35.05 70.08 37.05 68.64 38.04C64.26 41.05 48.95 51.59 46.76 53.09ZM72.39 62.83C72.39 62.79 72.39 62.75 72.39 62.71C75.39 63.11 78.08 64.36 80.01 65.51C77.99 66.69 75.13 67.99 71.99 68.31C72.07 67.21 72.35 63.37 72.39 62.83Z" id="eScsN6rwk"></path></defs><g><g><use xlink:href="#c19dcSpL7D" opacity="1" fill="#ffffff" fill-opacity="1"></use><g><use xlink:href="#c19dcSpL7D" opacity="1" fill-opacity="0" stroke="#000000" stroke-width="1" stroke-opacity="0"></use></g></g><g><use xlink:href="#c6ebGmxqW" opacity="1" fill="#ffffff" fill-opacity="1"></use><g><use xlink:href="#c6ebGmxqW" opacity="1" fill-opacity="0" stroke="#000000" stroke-width="1" stroke-opacity="0"></use></g></g><g><use xlink:href="#f1L0Fv5yf1" opacity="1" fill="#ffffff" fill-opacity="1"></use><g><use xlink:href="#f1L0Fv5yf1" opacity="1" fill-opacity="0" stroke="#000000" stroke-width="1" stroke-opacity="0"></use></g></g><g><use xlink:href="#b8C1lEE7y" opacity="1" fill="#ffffff" fill-opacity="1"></use><g><use xlink:href="#b8C1lEE7y" opacity="1" fill-opacity="0" stroke="#000000" stroke-width="1" stroke-opacity="0"></use></g></g><g><use xlink:href="#b11DAA8Qa3" opacity="1" fill="#ffffff" fill-opacity="1"></use><g><use xlink:href="#b11DAA8Qa3" opacity="1" fill-opacity="0" stroke="#000000" stroke-width="1" stroke-opacity="0"></use></g></g><g><use xlink:href="#eScsN6rwk" opacity="1" fill="#ffffff" fill-opacity="1"></use><g><use xlink:href="#eScsN6rwk" opacity="1" fill-opacity="0" stroke="#000000" stroke-width="1" stroke-opacity="0"></use></g></g></g></svg>